<svg xmlns="http://www.w3.org/2000/svg" width="48" height="48" fill="none" viewBox="0 0 48 48"><g clip-path="url(#a)"><mask id="b" width="48" height="48" x="0" y="0" maskUnits="userSpaceOnUse" style="mask-type:luminance"><path fill="#fff" d="M48 0H0v48h48z"/></mask><g mask="url(#b)"><path fill="#2424e6" d="M48 0H0v48h48z"/><path fill="#dedee7" d="M21.14 35.881c-3.287 0-5.334-1.921-5.334-4.959 0-2.851 2.016-4.618 5.738-4.897l4.342-.341v-.248c0-1.519-.93-2.325-2.636-2.325-2.016 0-3.102.775-3.102 2.17h-3.97c0-3.502 2.885-5.796 7.32-5.796 4.497 0 7.04 2.51 7.04 6.943v9.05H26.32l-.31-2.045c-.496 1.425-2.543 2.448-4.87 2.448m1.676-3.533c1.83 0 3.101-.9 3.101-2.666v-.837l-2.42.217c-2.077.186-2.822.651-2.822 1.643 0 1.116.683 1.643 2.14 1.643M10.816 35.644a1.903 1.903 0 0 1-1.901-1.89c0-1.051.847-1.912 1.9-1.912 1.013 0 1.902.86 1.902 1.911 0 1.03-.889 1.89-1.901 1.89M36.256 17.896c-1.463 0-2.629-1.182-2.629-2.666a2.606 2.606 0 0 1 2.629-2.636c1.434 0 2.6 1.15 2.6 2.636 0 1.484-1.166 2.666-2.6 2.666m-2.27 17.51V20.258h4.6v15.148z"/></g></g><defs><clipPath id="a"><path fill="#fff" d="M0 0h48v48H0z"/></clipPath></defs></svg>