<svg xmlns="http://www.w3.org/2000/svg" width="48" height="48" fill="none" viewBox="0 0 48 48"><g clip-path="url(#a)"><path fill="#2424e6" d="M0 0h48v48H0z"/><path fill="#dedee7" fill-rule="evenodd" d="M20.56 19.056c1.168-1.856 3.184-1.44 4.176 0 .517.75.725 1.04.904 1.288.164.228.302.421.632.904 1.216 2.08 4.384 5.264 4.384 5.264 1.684 1.653 1.2 3.744-1.728 3.744-4.1.642-6.035 1.189-7.14 1.501-.464.131-.782.221-1.052.26-.944.175-2.624 0-2.624 0-1.9-.2-2.992-.977-3.792-1.6-.8-.625-1.792-2.385 0-3.905a38 38 0 0 0 6.24-7.456m3.973 5.52c.698-.187 1.14-.725.988-1.292s-.84-.75-1.538-.564-1.14.674-.988 1.241.84.802 1.538.615" clip-rule="evenodd"/><path fill="#dedee7" d="M35.168 17.936c0 1.09-.672 2.288-1.766 2.288s-1.914-1.197-1.914-2.288c0-1.092.722-2.256 1.815-2.256 1.094 0 1.865 1.164 1.865 2.256"/></g><defs><clipPath id="a"><path fill="#fff" d="M0 0h48v48H0z"/></clipPath></defs></svg>