<svg xmlns="http://www.w3.org/2000/svg" width="48" height="48" fill="none" viewBox="0 0 48 48"><g clip-path="url(#a)"><path fill="#2424e6" d="M0 0h48v48H0z"/><path fill="#dedee7" d="M12.416 19.392h3.744v6.272c0 2.224 3.232 2.176 3.232 0v-6.272h3.744v6.56c0 6.224-10.72 6.24-10.72 0zm12.928 14.816V19.392h2.56l.448.864.672-.48s2.464-1.62 5.6 0c3.408 1.76 4.08 7.712 0 10.176-1.84.912-3.92.96-5.568 0v4.256z"/><path fill="#2424e6" d="M33.648 24.848c0 1.37-1.062 2.48-2.432 2.48s-2.432-1.11-2.432-2.48 1.062-2.48 2.432-2.48 2.432 1.11 2.432 2.48"/><path fill="#dedee7" d="M14.288 17.664a1.872 1.872 0 1 0 0-3.744 1.872 1.872 0 0 0 0 3.744M21.232 17.664a1.872 1.872 0 1 0 0-3.744 1.872 1.872 0 0 0 0 3.744"/></g><defs><clipPath id="a"><path fill="#fff" d="M0 0h48v48H0z"/></clipPath></defs></svg>