<svg xmlns="http://www.w3.org/2000/svg" width="48" height="48" fill="none" viewBox="0 0 48 48"><g clip-path="url(#a)"><path fill="#2424e6" d="M0 0h48v48H0z"/><path fill="#dedee7" d="M29.312 19.04h2.944c-1.744-2.88-4.784-5.584-9.312-4.256-3.68 1.04-5.136 4.112-5.136 6.704 1.936-5.696 8.656-6.384 11.504-2.448m3.104 7.568h-2.752a6.53 6.53 0 0 1-2.784 2.848c1.776-.224 4.112-1.136 5.536-2.848"/><path fill="#dedee7" d="M13.92 14.576a.66.66 0 0 0-.656-.656H10.48a.66.66 0 0 0-.656.656v9.152c0 7.248 6.8 13.504 13.504 13.504 5.12.144 9.008-1.792 12.08-5.664 1.952-2.736 2.72-4.768 2.832-8.624C37.196 32.663 29.584 34 26.496 34.24s-6.448-1.296-8.64-2.928-3.936-5.408-3.936-9.728z"/><path fill="#dedee7" d="M24.544 27.008a4.032 4.032 0 1 0 0-8.064 4.032 4.032 0 0 0 0 8.064M34.448 13.968a.513.513 0 0 0-.528.528v8.096c.352 7.04-3.904 9.792-8.688 11.056 7.568.464 12.384-5.296 12.384-10.688v-8.464a.504.504 0 0 0-.528-.528z"/><path fill="#dedee7" d="M21.024 14.784c1.408-.608 3.44-.752 4.944-.432-3.504.003-5.04.816-6.496 2.128-3.776 3.904-2.336 11.456 4.048 13.184 3.536.768 6.496-.08 8.8-2.768-1.872 4.016-6.064 5.6-9.392 5.04-3.152-.432-6.016-2.416-7.232-6.176-1.232-4.352.368-8.96 5.328-10.976"/></g><defs><clipPath id="a"><path fill="#fff" d="M0 0h48v48H0z"/></clipPath></defs></svg>